#!OML:ASF F:\VICON\USERDATA\INSTALL\rory3\rory3.ASF
:FULLY-SPECIFIED
:DEGREES
88
root 0.48763319553839796 18.274354831788127 13.399131354971393 16.687922923161334 0.024713820278056575 -3.016192244226326
lfemur -32.640090099123825 7.619792948219989 -18.009280435252045
ltibia 41.31452980294572
lfoot -10.078481709536817 2.2221993752711784
ltoes -8.142455710469509
rfemur -27.640936459810252 -3.231010689554785 22.37217096393257
rtibia 27.93058357784774
rfoot -13.491864887035687 2.2817769531991074
rtoes 10.907118293302151
lowerback 2.4079193339409652 0.4143185421448127 -0.07364612180913063
upperback 5.361429073293804 0.47581977027272815 1.3834404078950593
thorax 2.9471018418789683 0.1942303075084695 1.561176115246059
lowerneck -15.268692374306006 0.2943493079461276 -1.226436089758169
upperneck 27.69768512946458 0.519497380539708 0.2701967895803073
head 11.704244629588333 0.19455087127373638 0.2843654404175297
lclavicle 3.880900297145728e-16 -1.4342325290132888e-15
lhumerus -27.96148042651324 -1.2637404165579946 80.33990475719588
lradius 18.92230521866113
lwrist 2.7756154494119727
lhand -25.423424320215975 -7.1196645078639005
lfingers 7.12502
lthumb 1.4129036157600878 23.243199741577907
rclavicle 3.874422400774807e-16 -1.435418933942445e-15
rhumerus -22.109975016330054 -4.194699230288126 -73.60781034346024
rradius 34.60924058345977
rwrist 22.596330005312534
rhand -23.379737704265878 -26.888676684151022
rfingers 7.12502
rthumb 3.155488181764706 -56.44196471371267
89
root 0.48799499863176204 18.232005893414463 13.624783641870446 16.39530052098585 -0.02425332813811698 -2.991136185219162
lfemur -32.44537059739542 7.862125600015753 -18.039068264313716
ltibia 40.86941336788427
lfoot -9.89914043751641 1.969636174691546
ltoes -7.744940466774541
rfemur -28.64933731785409 -3.1407185971861704 22.31967886902285
rtibia 28.452938127011894
rfoot -13.660107712635355 2.37934580986311
rtoes 10.800013686031857
lowerback 2.669971057283786 0.42544486441019497 -0.11464300871489483
upperback 5.287600785541089 0.5063031912785256 1.3894452433230255
thorax 2.8174529037739404 0.21698928098546966 1.5775572749129754
lowerneck -15.199119113431912 0.25370423874214476 -1.2562243676481097
upperneck 27.242536941300944 0.44319700143801277 0.2969121075595031
head 11.436856896747623 0.16069433411334044 0.277719283809951
lclavicle 3.8850906783586645e-16 -1.4336551368904332e-15
lhumerus -30.346566128941365 -0.6386034938526066 79.69029600374766
lradius 18.28103435631884
lwrist 0.5479577647484835
lhand -25.173022382794972 -6.925030043037598
lfingers 7.12502
lthumb 1.4742790828118189 23.376511141459122
rclavicle 3.8701151403959254e-16 -1.4360249425954765e-15
rhumerus -23.769047863802193 -4.251370906409072 -73.33899414044286
rradius 34.3571242734536
rwrist 22.64351179113749
rhand -23.30368008207822 -26.831389313484966
rfingers 7.12502
rthumb 3.3977334747361145 -56.26576524483424
90
root 0.49107608305864014 18.184057204960947 13.908470834444076 16.10490842561546 -0.13778944463760245 -3.0737688360385613
lfemur -32.321328836974565 8.093081121281116 -17.924531958775137
ltibia 40.66469986022919
lfoot -9.69911004412748 1.8674293950935592
ltoes -7.933645258882454
rfemur -29.24138960403642 -3.026209958569173 22.311017953651497
rtibia 28.53817433618846
rfoot -13.804268717708425 2.5546104450100438
rtoes 10.635200867237998
lowerback 3.0848648620586934 0.49830755091685097 -0.010286627014336525
upperback 5.2168427203536805 0.6035990428574424 1.4097738219140337
thorax 2.6838853278452497 0.25587045648067475 1.5352802057258592
lowerneck -15.090556349266532 0.2133405366295244 -1.3006454734043273
upperneck 26.751845043980246 0.3785490261212451 0.3120526999473711
head 11.179069284144052 0.12484263914007127 0.26186894745530087
lclavicle 3.87440632935498e-16 -1.435106536892848e-15
lhumerus -32.14500469579943 0.4880698316343439 79.06109544927583
lradius 17.483497842376266
lwrist -2.3460402868579067
lhand -25.001024517787332 -6.9031436418674845
lfingers 7.12502
lthumb 1.4396020343411982 23.424544303901364
rclavicle 3.8646660514025944e-16 -1.4367925797697169e-15
rhumerus -25.29660776990955 -4.60568124552475 -73.0417027286441
rradius 34.030959942945124
rwrist 22.966495357426243
rhand -23.203748874010245 -26.77176608392445
rfingers 7.12502
rthumb 3.610680538265295 -56.13440296324909
91
root 0.49377178214087225 18.110066946394877 13.850931327772749 15.859062492487064 -0.29801976573336797 -3.1006251638604363
lfemur -31.969276600752963 8.262068898717096 -17.857160042704336
ltibia 40.66575174321654
lfoot -9.664320956314192 1.8853212685794576
ltoes -7.930041347776973
rfemur -29.819360535769043 -2.8910642644244557 22.27977198939858
rtibia 28.574295235028494
rfoot -13.98803984717024 2.715031299452719
rtoes 10.556404428617252
lowerback 3.4603856935524453 0.6026979356253878 0.0015565582171297998
upperback 5.184074356544921 0.7418134620758945 1.4209736958132693
thorax 2.5233520257570663 0.3154166153395424 1.533827719880339
lowerneck -15.00940447590917 0.17475678068486172 -1.3406025283454925
upperneck 26.13987838116671 0.32006497643252896 0.31534301066572007
head 10.782631457240262 0.08833977532664411 0.2387355430286442
lclavicle 3.8775404203829465e-16 -1.4346518671678306e-15
lhumerus -33.289188392281844 1.287293625183234 78.759213211777
lradius 16.7410011462077
lwrist -4.821291401038721
lhand -24.989369387443325 -6.945254397025358
lfingers 7.12502
lthumb 1.3794443902889315 23.317977368386458
rclavicle 3.8647755984094446e-16 -1.4367771194541763e-15
rhumerus -26.316739248368254 -5.16903843418376 -72.85169150907963
rradius 33.56389330896369
rwrist 23.39755564529651
rhand -23.22691580613054 -26.736534219647055
rfingers 7.12502
rthumb 3.778651577585813 -55.98242322655942
